<svg width="122" height="75" viewBox="0 0 122 75" fill="none" xmlns="http://www.w3.org/2000/svg">
<path d="M71.1667 16.2142H46.7667C46.2274 16.2142 45.7102 16.4277 45.3289 16.8078C44.9476 17.1879 44.7333 17.7034 44.7333 18.241V52.6962C44.7333 53.2337 44.9476 53.7492 45.3289 54.1293C45.7102 54.5094 46.2274 54.7229 46.7667 54.7229H71.1667C71.7059 54.7229 72.2231 54.5094 72.6045 54.1293C72.9858 53.7492 73.2 53.2337 73.2 52.6962V18.241C73.2 17.7034 72.9858 17.1879 72.6045 16.8078C72.2231 16.4277 71.7059 16.2142 71.1667 16.2142ZM48.8 20.2678H56.9333V24.3213H54.9C54.3607 24.3213 53.8435 24.5348 53.4622 24.9149C53.0809 25.295 52.8667 25.8105 52.8667 26.3481C52.8667 26.8856 53.0809 27.4011 53.4622 27.7812C53.8435 28.1613 54.3607 28.3749 54.9 28.3749H56.9333V42.5623H54.9C54.3607 42.5623 53.8435 42.7758 53.4622 43.1559C53.0809 43.536 52.8667 44.0515 52.8667 44.5891C52.8667 45.1266 53.0809 45.6421 53.4622 46.0222C53.8435 46.4023 54.3607 46.6158 54.9 46.6158H56.9333V50.6694H48.8V20.2678ZM69.1333 50.6694H61V46.6158H63.0333C63.5726 46.6158 64.0898 46.4023 64.4711 46.0222C64.8524 45.6421 65.0667 45.1266 65.0667 44.5891C65.0667 44.0515 64.8524 43.536 64.4711 43.1559C64.0898 42.7758 63.5726 42.5623 63.0333 42.5623H61V28.3749H63.0333C63.5726 28.3749 64.0898 28.1613 64.4711 27.7812C64.8524 27.4011 65.0667 26.8856 65.0667 26.3481C65.0667 25.8105 64.8524 25.295 64.4711 24.9149C64.0898 24.5348 63.5726 24.3213 63.0333 24.3213H61V20.2678H69.1333V50.6694ZM115.9 0H6.1C4.48218 0 2.93062 0.640603 1.78665 1.78089C0.642677 2.92117 0 4.46772 0 6.08033V60.8033C0 61.3408 0.214225 61.8563 0.595549 62.2364C0.976873 62.6165 1.49406 62.83 2.03333 62.83H7.23053C6.49869 64.0569 6.10843 65.4562 6.1 66.8836C6.09156 68.6874 6.68898 70.4421 7.79708 71.8681C8.90517 73.2942 10.4602 74.3096 12.2144 74.7526C13.9686 75.1956 15.8211 75.0406 17.4767 74.3124C19.1323 73.5842 20.4958 72.3247 21.35 70.7345C22.4016 72.6008 24.1539 73.9743 26.2214 74.5528C28.289 75.1313 30.5024 74.8674 32.3747 73.8192C34.2471 72.771 35.625 71.0244 36.2054 68.9635C36.7858 66.9026 36.521 64.6964 35.4695 62.83H86.5305C85.7987 64.0569 85.4084 65.4562 85.4 66.8836C85.3916 68.6874 85.989 70.4421 87.0971 71.8681C88.2052 73.2942 89.7602 74.3096 91.5144 74.7526C93.2686 75.1956 95.1211 75.0406 96.7767 74.3124C98.4324 73.5842 99.7958 72.3247 100.65 70.7345C101.171 71.6586 101.869 72.4714 102.705 73.1265C103.541 73.7817 104.498 74.2663 105.521 74.5528C106.545 74.8392 107.615 74.9219 108.671 74.796C109.727 74.6701 110.748 74.3382 111.675 73.8192C112.602 73.3002 113.417 72.6043 114.075 71.7711C114.732 70.938 115.218 69.9839 115.505 68.9635C115.793 67.9431 115.876 66.8762 115.749 65.8238C115.623 64.7714 115.29 63.7541 114.769 62.83H119.967C120.506 62.83 121.023 62.6165 121.404 62.2364C121.786 61.8563 122 61.3408 122 60.8033V6.08033C122 4.46772 121.357 2.92117 120.213 1.78089C119.069 0.640603 117.518 0 115.9 0ZM24.4 12.1607V58.7765H16.2667V12.1607H24.4ZM21.4639 62.83C21.4232 62.8989 21.3886 62.9699 21.35 63.0327C21.3114 62.9618 21.2768 62.8908 21.2361 62.83H21.4639ZM28.4667 12.1607H36.6V58.7765H28.4667V12.1607ZM40.6667 12.1607H77.2667V58.7765H40.6667V12.1607ZM81.3333 12.1607H89.4667V58.7765H81.3333V12.1607ZM100.65 63.0327C100.611 62.9618 100.577 62.8908 100.536 62.83H100.764C100.723 62.8989 100.689 62.9699 100.65 63.0327ZM93.5333 58.7765V12.1607H101.667V58.7765H93.5333ZM117.933 12.1607V16.2142H105.733V12.1607H117.933ZM105.733 36.482H117.933V40.5355H105.733V36.482ZM105.733 32.4284V28.3749H117.933V32.4284H105.733ZM105.733 24.3213V20.2678H117.933V24.3213H105.733ZM105.733 44.5891H117.933V48.6426H105.733V44.5891ZM4.06667 6.08033C4.06667 5.54279 4.28089 5.02727 4.66222 4.64718C5.04354 4.26708 5.56073 4.05355 6.1 4.05355H115.9C116.439 4.05355 116.956 4.26708 117.338 4.64718C117.719 5.02727 117.933 5.54279 117.933 6.08033V8.1071H4.06667V6.08033ZM4.06667 12.1607H12.2V58.7765H4.06667V12.1607ZM14.2333 70.9371C13.5186 70.9407 12.8156 70.7565 12.1951 70.403C11.5746 70.0495 11.0585 69.5392 10.6988 68.9236C10.3391 68.308 10.1485 67.6088 10.1463 66.8964C10.144 66.184 10.3302 65.4836 10.686 64.8657C11.0418 64.2478 11.5547 63.7344 12.1729 63.377C12.7912 63.0196 13.4931 62.831 14.2078 62.8301C14.9225 62.8292 15.6248 63.0161 16.244 63.3719C16.8632 63.7277 17.3774 64.2399 17.7347 64.8568H14.2333C13.6941 64.8568 13.1769 65.0703 12.7955 65.4504C12.4142 65.8305 12.2 66.3461 12.2 66.8836C12.2 67.4211 12.4142 67.9366 12.7955 68.3167C13.1769 68.6968 13.6941 68.9104 14.2333 68.9104H17.7347C17.3806 69.5246 16.8707 70.0351 16.2562 70.3909C15.6416 70.7466 14.944 70.935 14.2333 70.9371ZM32.5333 66.8836C32.5356 67.7745 32.2424 68.6412 31.6994 69.3489C31.1564 70.0565 30.3941 70.5655 29.5309 70.7967C28.6677 71.0279 27.7521 70.9682 26.9264 70.6271C26.1007 70.286 25.4113 69.6824 24.9653 68.9104H28.4667C29.0059 68.9104 29.5231 68.6968 29.9045 68.3167C30.2858 67.9366 30.5 67.4211 30.5 66.8836C30.5 66.3461 30.2858 65.8305 29.9045 65.4504C29.5231 65.0703 29.0059 64.8568 28.4667 64.8568H24.9653C25.4113 64.0847 26.1007 63.4812 26.9264 63.1401C27.7521 62.7989 28.6677 62.7393 29.5309 62.9705C30.3941 63.2016 31.1564 63.7106 31.6994 64.4183C32.2424 65.126 32.5356 65.9927 32.5333 66.8836ZM93.5333 70.9371C92.8186 70.9407 92.1156 70.7565 91.4951 70.403C90.8746 70.0495 90.3585 69.5392 89.9988 68.9236C89.6391 68.308 89.4485 67.6088 89.4463 66.8964C89.444 66.184 89.6302 65.4836 89.986 64.8657C90.3418 64.2478 90.8547 63.7344 91.4729 63.377C92.0912 63.0196 92.7931 62.831 93.5078 62.8301C94.2225 62.8292 94.9248 63.0161 95.544 63.3719C96.1632 63.7277 96.6774 64.2399 97.0347 64.8568H93.5333C92.9941 64.8568 92.4769 65.0703 92.0955 65.4504C91.7142 65.8305 91.5 66.3461 91.5 66.8836C91.5 67.4211 91.7142 67.9366 92.0955 68.3167C92.4769 68.6968 92.9941 68.9104 93.5333 68.9104H97.0347C96.6806 69.5246 96.1707 70.0351 95.5562 70.3909C94.9416 70.7466 94.244 70.935 93.5333 70.9371ZM111.833 66.8836C111.836 67.7745 111.542 68.6412 110.999 69.3489C110.456 70.0565 109.694 70.5655 108.831 70.7967C107.968 71.0279 107.052 70.9682 106.226 70.6271C105.401 70.286 104.711 69.6824 104.265 68.9104H107.767C108.306 68.9104 108.823 68.6968 109.204 68.3167C109.586 67.9366 109.8 67.4211 109.8 66.8836C109.8 66.3461 109.586 65.8305 109.204 65.4504C108.823 65.0703 108.306 64.8568 107.767 64.8568H104.265C104.711 64.0847 105.401 63.4812 106.226 63.1401C107.052 62.7989 107.968 62.7393 108.831 62.9705C109.694 63.2016 110.456 63.7106 110.999 64.4183C111.542 65.126 111.836 65.9927 111.833 66.8836ZM105.733 58.7765V52.6962H117.933V58.7765H105.733Z" fill="url(#paint0_linear_504_36)"/>
<defs>
<linearGradient id="paint0_linear_504_36" x1="15.3029" y1="79.4111" x2="106.402" y2="-11.9827" gradientUnits="userSpaceOnUse">
<stop stop-color="#2BF4FF"/>
<stop offset="1" stop-color="#FF94D2"/>
</linearGradient>
</defs>
</svg>
